<svg height="472pt" viewBox="0 -24 472 472" width="472pt" xmlns="http://www.w3.org/2000/svg"><path d="m0 96h272v320h-272zm0 0" fill="#e6f1fd"/><path d="m0 0h272v96h-272zm0 0" fill="#7cb8eb"/><path d="m64 32h112v32h-112zm0 0" fill="#eb8cb3"/><g fill="#3e5496"><path d="m240 48c0 8.835938-7.164062 16-16 16s-16-7.164062-16-16 7.164062-16 16-16 16 7.164062 16 16zm0 0"/><path d="m24 28h16v8h-16zm0 0"/><path d="m24 60h16v8h-16zm0 0"/><path d="m240 248c0 57.4375-46.5625 104-104 104s-104-46.5625-104-104 46.5625-104 104-104 104 46.5625 104 104zm0 0"/></g><path d="m208 248c.019531 27.664062-15.820312 52.890625-40.75 64.886719-24.929688 11.992187-54.527344 8.632812-76.128906-8.648438-4.246094-3.269531-8.039063-7.089843-11.28125-11.359375-17.332032-21.578125-20.734375-51.1875-8.746094-76.132812 11.984375-24.945313 37.230469-40.792969 64.90625-40.746094 6.207031-.003906 12.386719.777344 18.398438 2.320312 5.609374 1.558594 11.027343 3.734376 16.160156 6.480469 10.367187 5.683594 19.160156 13.847657 25.601562 23.757813 3.144532 4.679687 5.699219 9.734375 7.601563 15.042968 2.800781 7.828126 4.238281 16.082032 4.238281 24.398438zm0 0" fill="#7cb8eb"/><g fill="#fcec97"><path d="m133.679688 261.679688-42.558594 42.558593c-4.246094-3.269531-8.039063-7.089843-11.28125-11.359375l42.480468-42.558594zm0 0"/><path d="m203.761719 223.601562-46.082031 46.078126-11.359376-11.359376 49.839844-49.761718c3.144532 4.679687 5.699219 9.734375 7.601563 15.042968zm0 0"/><path d="m170.558594 184.800781-60.878906 60.878907-11.359376-11.359376 56.078126-56c5.609374 1.558594 11.027343 3.734376 16.160156 6.480469zm0 0"/></g><path d="m32 384h64v32h-64zm0 0" fill="#3e5496"/><path d="m272 280h32v64h-32zm0 0" fill="#4f83d1"/><path d="m352 152v144h-48v32h48c17.671875 0 32-14.328125 32-32v-144h48v168h32v-168c0-17.671875-14.328125-32-32-32h-48c-17.671875 0-32 14.328125-32 32zm0 0" fill="#3e5496"/><g fill="#fcec97"><path d="m328 192h80v16h-80zm0 0"/><path d="m408 256h56v16h-56zm0 0"/><path d="m400 96h16v56h-16zm0 0"/></g><g fill="#7cb8eb"><path d="m264 408h64v16h-64zm0 0"/><path d="m344 408h16v16h-16zm0 0"/><path d="m376 408h96v16h-96zm0 0"/></g></svg>