<svg height="512" viewBox="0 0 64 64" width="512" xmlns="http://www.w3.org/2000/svg"><rect fill="#f7d881" height="38" rx="4" width="60" x="2" y="13"/><path d="m2 17v2h60v-2a4 4 0 0 0 -4-4h-52a4 4 0 0 0 -4 4z" fill="#a0a8b2"/><path d="m44 40h12a2 2 0 0 1 2 2v2a0 0 0 0 1 0 0h-16a0 0 0 0 1 0 0v-2a2 2 0 0 1 2-2z" fill="#a0a8b2"/><g fill="#ebf7fe"><path d="m44 44v1a2 2 0 0 0 2 2 2 2 0 0 0 2-2v-1z"/><path d="m52 44v1a2 2 0 0 0 2 2 2 2 0 0 0 2-2v-1z"/><path d="m44 40 2-5h8l2 5z"/><path d="m6 23h22v24h-22z"/></g><path d="m32 23h26v8h-26z" fill="#a0a8b2"/><path d="m11 47v-6a2 2 0 0 1 2-2h8a2 2 0 0 1 2 2v6z" fill="#a0a8b2"/><path d="m19 41.98h2v5h-2z" fill="#88929f"/><path d="m13 41.98h2v5h-2z" fill="#88929f"/><rect fill="#fcd4a5" height="8" rx="3" transform="matrix(-1 0 0 -1 34 65.97)" width="6" x="14" y="28.98"/><g fill="#ebf7fe"><path d="m31 34h9v2h-9z"/><path d="m31 38h9v2h-9z"/><path d="m31 42h9v2h-9z"/><path d="m31 46h9v2h-9z"/><path d="m35 26h20v2h-20z"/></g></svg>