<svg height="512" viewBox="0 0 64 64" width="512" xmlns="http://www.w3.org/2000/svg"><path d="m30 48c0-7.72 6.28-14 14-14v-6h-17.171l-8.829 8.829v-24.829h-8c-1.105 0-2 .895-2 2v44c0 1.105.895 2 2 2h26.826c-4.081-2.449-6.826-6.904-6.826-12z" fill="#505050"/><path d="m30 48c0-6.329 4.225-11.684 10-13.41v-6.59h-13.171l-8.829 8.829v-20.829h-6v40h20.527c-1.588-2.27-2.527-5.026-2.527-8z" fill="#64c8f0"/><path d="m20 6v26l5.414-5.414c.375-.375.884-.586 1.414-.586h27.172c1.105 0 2-.895 2-2v-18c0-1.105-.895-2-2-2h-32c-1.105 0-2 .895-2 2z" fill="#fa6450"/><path d="m22 6c0-1.105.895-2 2-2h-2c-1.105 0-2 .895-2 2v26l2-2z" fill="#dc4632"/><g fill="#f0f0f0"><path d="m24 8v8h6v4h-6v2h8v-14zm6 6h-4v-4h4z"/><path d="m34 8v8h6v4h-6v2h8v-14zm6 6h-4v-4h4z"/><path d="m44 8v8h6v4h-6v2h8v-14zm6 6h-4v-4h4z"/></g><path d="m12 58v-44c0-1.105.895-2 2-2h-4c-1.105 0-2 .895-2 2v44c0 1.105.895 2 2 2h4c-1.105 0-2-.895-2-2z" fill="#3c3c3c"/><g fill="#46aad2"><path d="m18 40h4v4h-4z"/><path d="m24 40h4v4h-4z"/><path d="m32.527 40h-2.527v4h.59c.432-1.445 1.092-2.791 1.937-4z"/></g><path d="m44 60c-6.627 0-12-5.373-12-12s5.373-12 12-12 12 5.373 12 12-5.373 12-12 12z" fill="#fab400"/><path d="m34 48c0-6.29 4.842-11.44 11-11.949-.331-.028-.662-.051-1-.051-6.627 0-12 5.373-12 12s5.373 12 12 12c.338 0 .669-.023 1-.051-6.158-.509-11-5.659-11-11.949z" fill="#dc9600"/><g fill="#f0f0f0"><path d="m44 46v-6h-2c-2.209 0-4 1.791-4 4v8c0 2.209 1.791 4 4 4h2v-6h-4v-4z"/><path d="m48.389 51.889-.707-.707c.85-.85 1.318-1.98 1.318-3.182s-.468-2.332-1.318-3.182l.707-.707c1.039 1.038 1.611 2.42 1.611 3.889s-.572 2.851-1.611 3.889z"/><path d="m46.975 50.475-.707-.707c.975-.975.975-2.561 0-3.535l.707-.707c1.364 1.364 1.364 3.584 0 4.949z"/></g></svg>