<svg enable-background="new 0 0 512 512" viewBox="0 0 512 512" xmlns="http://www.w3.org/2000/svg" xmlns:xlink="http://www.w3.org/1999/xlink"><linearGradient id="a" gradientTransform="matrix(281.6035 0 0 -378.7733 13945.8398 246862.0625)" gradientUnits="userSpaceOnUse" x1="-48.7194" x2="-47.9129" y1="651.5027" y2="650.9031"><stop offset="0" stop-color="#d4e1f4"/><stop offset=".1717" stop-color="#d4e1f4"/><stop offset=".2" stop-color="#d4e1f4"/><stop offset=".2001" stop-color="#dae4f4"/><stop offset=".2007" stop-color="#ebebf4"/><stop offset=".2014" stop-color="#f6f1f4"/><stop offset=".2023" stop-color="#fdf4f4"/><stop offset=".205" stop-color="#fff5f4"/><stop offset=".2522" stop-color="#fff5f4"/><stop offset=".26" stop-color="#fff5f4"/><stop offset=".26" stop-color="#d4e1f4"/><stop offset=".3974" stop-color="#d4e1f4"/><stop offset=".42" stop-color="#d4e1f4"/><stop offset=".4201" stop-color="#dae4f4"/><stop offset=".4207" stop-color="#ebebf4"/><stop offset=".4214" stop-color="#f6f1f4"/><stop offset=".4223" stop-color="#fdf4f4"/><stop offset=".425" stop-color="#fff5f4"/><stop offset=".4894" stop-color="#fff5f4"/><stop offset=".5" stop-color="#fff5f4"/><stop offset=".5" stop-color="#f9f2f4"/><stop offset=".5001" stop-color="#e8ebf4"/><stop offset=".5003" stop-color="#dde5f4"/><stop offset=".5005" stop-color="#d6e2f4"/><stop offset=".501" stop-color="#d4e1f4"/><stop offset=".7062" stop-color="#d4e1f4"/><stop offset=".74" stop-color="#d4e1f4"/><stop offset=".741" stop-color="#fff5f4"/><stop offset=".8346" stop-color="#fff5f4"/><stop offset=".85" stop-color="#fff5f4"/><stop offset=".851" stop-color="#d4e1f4"/></linearGradient><g transform="translate(0 1)"><path d="m503.467 165.386v264.534c.632 18.194-13.586 33.465-31.779 34.133h-397.242c-18.193-.668-32.411-15.939-31.779-34.133v-264.534c-.632-18.194 13.586-33.465 31.779-34.133h143.007z" fill="#7facfa"/><path d="m469.333 165.386v264.534c.632 18.194-13.586 33.465-31.779 34.133h-397.241c-18.193-.668-32.411-15.939-31.78-34.133v-264.534c-.632-18.194 13.586-33.465 31.779-34.133h143.008z" fill="#fff"/><path d="m477.867 165.386v264.534c.505 18.334-13.939 33.61-32.272 34.133h-379.19c-18.333-.523-32.776-15.8-32.272-34.133v-264.534c-.505-18.334 13.939-33.61 32.272-34.133h121.018z" fill="#e3e7f2"/><path d="m503.467 126.132v78.252c-.946 71.415-34.758 138.408-91.648 181.589l-50.603 40.021c-6.671 5.204-16.027 5.204-22.699 0l-1.621-1.28-48.981-38.741c-56.89-43.18-90.702-110.173-91.648-181.589v-78.252c.046-5.709 3.364-10.886 8.533-13.311l131.328-63.744c8.682-4.181 18.795-4.181 27.477 0l114.176 55.381 17.152 8.363c5.169 2.425 8.488 7.602 8.534 13.311z" fill="#7facfa"/><path d="m477.867 105.824v83.456c-.326 74.962-33.895 145.915-91.648 193.707l-49.323 41.728-48.981-38.741c-56.89-43.18-90.702-110.173-91.648-181.589v-78.252c.046-5.709 3.364-10.886 8.533-13.311l131.328-63.744c8.682-4.181 18.795-4.181 27.477 0l114.176 55.381c.071.451.1.908.086 1.365z" fill="url(#a)"/><ellipse cx="349.867" cy="208.395" fill="#e3e7f2" rx="76.8" ry="76.459"/><path d="m173.975 313.331-29.64-14.61c-3.813-1.861-6.236-5.727-6.249-9.97v-11.466c.995-1.136 1.931-2.323 2.805-3.555 3.992-5.592 7.1-11.765 9.213-18.303 3.881-1.143 6.56-4.688 6.6-8.734v-12.237c-.014-2.601-1.144-5.071-3.103-6.782v-17.691s3.683-27.532-34.133-27.532c-37.82 0-34.133 27.532-34.133 27.532v17.691c-1.959 1.711-3.089 4.181-3.103 6.782v12.237c.018 3.132 1.637 6.037 4.291 7.7 2.069 8.342 5.896 16.147 11.224 22.891v11.181c-.012 4.098-2.276 7.858-5.893 9.786l-27.682 14.886c-7.962 4.242-12.946 12.518-12.971 21.539v9.909h136.533v-9.309c-.03-9.338-5.366-17.849-13.759-21.945z" fill="#a4c2f7"/></g><path d="m17.067 166.386v110.934 153.6h-17.067v-153.6-110.934z" fill="#fff"/><g fill="#428dff"><path d="m8.533 209.053c4.707-.014 8.52-3.826 8.533-8.533v-34.133h-17.066v34.133c.014 4.707 3.826 8.519 8.533 8.533z"/><path d="m0 430.92h17.067v-162.134c0-4.713-3.821-8.533-8.533-8.533s-8.534 3.821-8.534 8.533z"/><path d="m17.067 234.653c-.033-2.259-.917-4.422-2.475-6.059l-1.279-1.025c-.476-.324-.993-.583-1.538-.771-.484-.245-1.003-.417-1.538-.508-.563-.096-1.133-.153-1.704-.171-2.259.031-4.423.915-6.059 2.475-3.222 3.397-3.222 8.721 0 12.117.815.771 1.77 1.379 2.813 1.792 1.027.438 2.13.67 3.246.683 2.259-.034 4.422-.918 6.059-2.475 1.557-1.636 2.44-3.799 2.475-6.058z"/><path d="m349.867 439.42c-6.034.021-11.898-1.997-16.642-5.725l-50.604-40.067c-58.939-44.798-93.944-114.258-94.887-188.283v-78.225c.001-8.985 5.179-17.165 13.3-21.008l131.371-63.717c11.038-5.308 23.891-5.308 34.929 0l131.366 63.716c8.12 3.845 13.298 12.024 13.3 21.008v78.225c-.946 74.03-35.956 143.493-94.9 188.292l-50.592 40.058c-4.744 3.729-10.608 5.746-16.641 5.726zm0-383.958c-3.466-.006-6.888.774-10.008 2.283l-131.375 63.717c-2.215 1.02-3.647 3.22-3.683 5.658v78.225c.962 68.8 33.573 133.318 88.4 174.892l50.617 40.075c3.559 2.767 8.541 2.767 12.1 0l50.6-40.067c54.836-41.571 87.454-106.094 88.417-174.9v-78.225c-.034-2.438-1.467-4.64-3.683-5.658l-131.373-63.717c-3.123-1.505-6.545-2.286-10.012-2.283z"/><path d="m349.867 294.387c-46.895-.188-84.776-38.324-84.65-85.219s38.21-84.827 85.105-84.765c46.895.063 84.878 38.096 84.879 84.991-.147 47.013-38.322 85.035-85.334 84.993zm0-152.917c-37.47.188-67.71 30.682-67.585 68.152s30.569 67.761 68.039 67.699 67.812-30.455 67.812-67.925c-.138-37.591-30.676-67.976-68.266-67.926z"/><path d="m335.904 242.411c-2.264.003-4.435-.897-6.033-2.5l-13.967-13.966c-3.332-3.332-3.332-8.735 0-12.067s8.735-3.332 12.067 0l7.933 7.933 35.859-35.858c3.337-3.304 8.716-3.29 12.036.03s3.334 8.699.031 12.036l-41.892 41.892c-1.599 1.603-3.77 2.503-6.034 2.5z"/><path d="m8.533 174.92c-2.263.001-4.434-.898-6.035-2.499-1.6-1.6-2.499-3.771-2.499-6.035.028-23.553 19.114-42.639 42.667-42.667h153.6c4.713 0 8.533 3.821 8.533 8.533s-3.821 8.533-8.533 8.533h-153.6c-14.132.015-25.585 11.468-25.6 25.6.001 2.263-.898 4.434-2.499 6.035-1.599 1.602-3.77 2.5-6.034 2.5z"/><path d="m469.333 473.587h-426.666c-23.553-.028-42.639-19.114-42.667-42.667 0-4.713 3.821-8.533 8.533-8.533s8.533 3.821 8.533 8.533c.015 14.132 11.468 25.585 25.6 25.6h426.667c14.132-.015 25.585-11.468 25.6-25.6v-264.534c0-4.713 3.821-8.533 8.533-8.533 4.713 0 8.533 3.821 8.533 8.533v264.534c-.027 23.553-19.113 42.639-42.666 42.667z"/><path d="m187.733 388.253h-134.6c-4.713 0-8.533-3.82-8.533-8.533s3.821-8.533 8.533-8.533h134.6c4.713 0 8.533 3.821 8.533 8.533s-3.82 8.533-8.533 8.533z"/><path d="m119.467 422.387h-66.334c-4.713 0-8.533-3.82-8.533-8.533s3.821-8.533 8.533-8.533h66.333c4.713 0 8.533 3.82 8.533 8.533s-3.82 8.533-8.532 8.533z"/><path d="m187.733 354.12h-136.533c-2.263.001-4.434-.898-6.035-2.499-1.6-1.6-2.499-3.771-2.499-6.035v-9.908c.019-12.165 6.73-23.332 17.463-29.058l27.683-14.883c.848-.441 1.385-1.311 1.4-2.267v-8.308c-4.553-6.362-8.016-13.436-10.25-20.933-3.369-3.3-5.268-7.817-5.267-12.533v-12.233c.007-3.544 1.089-7.002 3.104-9.917v-14.117c-.679-8.611 2.096-17.138 7.713-23.7 9.202-9.2 21.986-13.885 34.954-12.809 12.965-1.075 25.746 3.606 34.95 12.8 5.619 6.564 8.395 15.094 7.717 23.708v14.117c2.015 2.915 3.097 6.373 3.104 9.917v12.233c.008 6.061-3.117 11.696-8.262 14.9-2.294 6.076-5.369 11.827-9.15 17.108-.413.575-.815 1.117-1.208 1.625v8.425c.019.988.593 1.881 1.483 2.308l29.646 14.608.004.009c11.338 5.5 18.531 16.999 18.517 29.6v9.308c.001 2.263-.898 4.434-2.499 6.035-1.6 1.601-3.771 2.499-6.035 2.499zm-128-17.067h119.467v-.775c-.01-6.095-3.505-11.647-8.996-14.292l-29.642-14.608c-6.749-3.275-11.028-10.124-11.013-17.625v-11.466c0-2.096.771-4.119 2.167-5.683.8-.915 1.551-1.872 2.25-2.867 3.479-4.876 6.185-10.258 8.025-15.958.865-2.642 2.962-4.697 5.621-5.508l.558-12.809c-1.9-1.755-3.018-4.198-3.104-6.783v-17.692c0-.379.025-.758.075-1.133.247-4.018-1.078-7.975-3.696-11.034-6.086-5.184-14.027-7.653-21.979-6.833-8.019-.849-16.029 1.678-22.108 6.975-2.528 3.046-3.804 6.94-3.567 10.892.05.376.075.754.075 1.133v17.692c0 2.436-1.042 4.756-2.863 6.375l-.242 12.642c2.001 1.376 3.444 3.421 4.071 5.767 1.774 7.026 4.987 13.607 9.438 19.325 1.289 1.544 1.999 3.489 2.008 5.5v11.183c-.011 7.235-3.997 13.878-10.375 17.292l-27.692 14.892c-5.196 2.754-8.455 8.144-8.479 14.025v1.373z"/></g></svg>