<svg enable-background="new 0 0 605.113 605.113" height="605.113" viewBox="0 0 605.113 605.113" width="605.113" xmlns="http://www.w3.org/2000/svg"><path d="m529.473 113.459h-56.729l-18.91-37.82c-11.139-22.011-16.924-37.819-37.818-37.819h-226.919c-20.895 0-27.797 18.04-37.82 37.819l-18.91 37.82h-56.728c-41.772 0-75.639 33.867-75.639 75.639v302.556c0 41.771 33.867 75.639 75.639 75.639h453.835c41.771 0 75.639-33.867 75.639-75.639v-302.556c-.002-41.771-33.869-75.639-75.64-75.639zm-226.917 378.195c-83.543 0-151.278-67.734-151.278-151.277s67.735-151.278 151.278-151.278 151.278 67.735 151.278 151.278-67.734 151.277-151.278 151.277z"/><path d="m302.556 226.918c-62.667 0-113.459 50.792-113.459 113.459 0 62.668 50.792 113.459 113.459 113.459s113.459-50.791 113.459-113.459-50.792-113.459-113.459-113.459z"/></svg>