<svg enable-background="new 0 0 64 64" height="512" viewBox="0 0 64 64" width="512" xmlns="http://www.w3.org/2000/svg"><path d="m46 9s-5.667-5-14-5-14 5-14 5h-4v51h18 18v-51z" fill="#edeff1"/><path d="m32 4c-8.333 0-14 5-14 5h-4v3h5.575l.287-.263c3.336-3.054 7.647-4.737 12.138-4.737s8.802 1.683 12.138 4.737l.287.263h5.575v-3h-4s-5.667-5-14-5z" fill="#d3d3d3"/><path d="m46.299 7c-3.926-3.125-8.891-5-14.299-5s-10.373 1.875-14.299 5h-5.701v4h7.187c3.38-3.095 7.868-5 12.813-5s9.433 1.905 12.813 5h7.187v-4z" fill="#6e83b7"/><path d="m12 58h40v4h-40z" fill="#6e83b7"/><path d="m47 58h-2v-34c0-4.962-4.037-9-9-9h-8c-4.963 0-9 4.038-9 9v34h-2v-34c0-6.065 4.935-11 11-11h8c6.065 0 11 4.935 11 11z" fill="#d3d3d3"/><g fill="#6e83b7"><path d="m17 24h2v4h-2z"/><path d="m17 36h2v4h-2z"/><path d="m17 48h2v4h-2z"/></g><g fill="#d3d3d3"><path d="m31 49h2v6h-2z"/><path d="m28 49h2v6h-2z"/><path d="m25 49h2v6h-2z"/><path d="m34 49h2v6h-2z"/><path d="m37 49h2v6h-2z"/></g><g fill="#6e83b7"><circle cx="42" cy="38" r="2"/><circle cx="28" cy="21.25" r="1.25"/><path d="m29.25 22.5h-1.25-1.25c-.69 0-1.25.56-1.25 1.25v1.25c0 .69.56 1.25 1.25 1.25v2.5c0 .69.56 1.25 1.25 1.25s1.25-.56 1.25-1.25v-2.5c.69 0 1.25-.56 1.25-1.25v-1.25c0-.69-.56-1.25-1.25-1.25z"/><circle cx="36" cy="21.25" r="1.25"/><path d="m38.5 25v-1.25c0-.69-.56-1.25-1.25-1.25h-1.25-1.25c-.69 0-1.25.56-1.25 1.25v1.25c0 .489.288.901.697 1.107l-.697 1.393h1.25v1.25c0 .69.56 1.25 1.25 1.25s1.25-.56 1.25-1.25v-1.25h1.25l-.697-1.393c.409-.206.697-.618.697-1.107z"/></g><path d="m31.5 21h1v8h-1z" fill="#d3d3d3"/></svg>