<svg enable-background="new 0 0 468.192 468.192" viewBox="0 0 468.192 468.192" xmlns="http://www.w3.org/2000/svg"><path d="m298.609 114.596c-78.4 14.2-100.8 39.3-106.2 57-3.1 10 .1 20.7 7.6 28 11.4 11.1 35.9 30.7 71.9 38.2 30 6.2 6.8 18.7-17.8 28-17.3 6.5-35.2 11.4-53.3 14.9-70 13.5-316.8 68.8-135.7 147.3.8.3 1.7.5 2.5.5h355.9c6.2 0 8.6-8 3.5-11.4-30.1-20.2-75.3-65.3 10.1-118.3 107.3-66.6-94.6-109.3-132.6-114.8-8-1.2-15.8-3.6-22.8-7.7-17.5-10.3-32.1-31.3 41.1-61.6h-24.2z" fill="#3a556a"/><path d="m123.109 275.496c-15.3 26.2-25.9 54.9-31.9 73.6-1.9 5.8-10 5.8-11.9 0-6-18.6-16.6-47.3-31.9-73.6-16.5-28.4.6-65.8 33.4-68.4 1.5-.1 2.9-.2 4.4-.2s2.9.1 4.4.2c32.9 2.6 50.1 40 33.5 68.4z" fill="#44c4a1"/><circle cx="85.309" cy="250.596" fill="#ebf0f3" r="31.2"/><path d="m435.309 172.696c-15.3 26.2-25.9 54.9-31.9 73.6-1.9 5.8-10 5.8-11.9 0-6-18.6-16.6-47.3-31.9-73.6-16.5-28.4.6-65.8 33.4-68.4 1.5-.1 2.9-.2 4.4-.2s2.9.1 4.4.2c32.9 2.6 50.1 39.9 33.5 68.4z" fill="#27a2db"/><circle cx="397.509" cy="147.696" fill="#ebf0f3" r="31.2"/><path d="m261.309 102.496c-14 24-23.7 50.2-29.2 67.3-1.7 5.3-9.1 5.3-10.9 0-5.5-17.1-15.2-43.3-29.2-67.3-15.1-26 .6-60.2 30.6-62.6 1.3-.1 2.7-.2 4-.2s2.7.1 4 .2c30.1 2.4 45.8 36.6 30.7 62.6z" fill="#e56353"/><circle cx="226.609" cy="79.696" fill="#ebf0f3" r="28.6"/><g fill="#d5d6db"><path d="m356.909 304.096-12-7.6c10.7-7 15.9-14.4 16.2-21.7.5-11.2-10.3-20.9-13.9-23.5l5.4-4.3c.6.4 17.9 11.1 18.8 27.9.5 11.5-.5 17.8-14.5 29.2z"/><path d="m316.509 232.596c-4.2-1.2-35.7-10.9-40.4-22.1l8.2-4.4c3 5.1 27.3 16.1 39 18.9z"/><path d="m229.209 366.396 2-11.4c48.7.3 76.2-29.7 76.4-30l8.7 5.4c-1.1 1.3-30.3 36.1-87.1 36z"/></g></svg>