<svg height="512" viewBox="0 0 512 512" width="512" xmlns="http://www.w3.org/2000/svg">
    <path
        d="m441.69 504.5h-371.38v-69.48c0-8.01 6.5-14.51 14.51-14.51h342.36c8.01 0 14.51 6.5 14.51 14.51z"
        fill="#407093" />
    <path
        d="m427.18 420.51h-22.07c8.01 0 14.51 6.5 14.51 14.51v69.48h22.07v-69.48c0-8.02-6.5-14.51-14.51-14.51z"
        fill="#bed8fb" />
    <path d="m100.38 361.97h311.24v58.54h-311.24z" fill="#bed8fb" />
    <path d="m389.05 361.97h22.57v58.53h-22.57z" fill="#9dc6fb" />
    <path
        d="m384.02 361.18h-256.02l23.88-225.35c2.7-25.49 24.2-44.83 49.83-44.83h108.61c25.63 0 47.13 19.34 49.83 44.83z"
        fill="#bed8fb" />
    <g fill="#fff8e1">
        <path
            d="m360.14 136.62c-2.7-25.49-24.2-44.83-49.83-44.83h-24.27c25.63 0 47.13 19.34 49.83 44.83l23.87 225.35h24.27z" />
        <path
            d="m303.19 361.97h-94.38v-47.19c0-26.06 21.13-47.19 47.19-47.19s47.19 21.13 47.19 47.19z" />
        <path
            d="m256 267.59c-4.35 0-8.56.6-12.56 1.71 19.96 5.5 34.63 23.77 34.63 45.48v47.19h25.12v-47.19c0-26.06-21.13-47.19-47.19-47.19z" />
    </g>
    <path
        d="m211.63 458.43c-4.14 0-7.5 3.35-7.5 7.5 0 4.14 3.36 7.5 7.5 7.5h88.74c4.14 0 7.5-3.36 7.5-7.5 0-4.15-3.36-7.5-7.5-7.5z" />
    <g fill="#000">
        <path
            d="m256 65.12c4.14 0 7.5-3.36 7.5-7.5v-50.12c0-4.14-3.36-7.5-7.5-7.5s-7.5 3.36-7.5 7.5v50.12c0 4.14 3.36 7.5 7.5 7.5z" />
        <path
            d="m161.05 65.9c1.45 2.15 3.82 3.31 6.23 3.31 1.44 0 2.9-.42 4.18-1.29 3.44-2.31 4.35-6.97 2.03-10.41l-28.02-41.55c-2.32-3.43-6.98-4.34-10.42-2.02-3.43 2.32-4.34 6.98-2.02 10.41z" />
        <path
            d="m71.55 96.84 45.14 21.77c1.05.51 2.16.75 3.25.75 2.79 0 5.47-1.57 6.77-4.25 1.79-3.73.23-8.21-3.5-10.01l-45.15-21.77c-3.73-1.8-8.21-.23-10.01 3.5s-.23 8.21 3.5 10.01z" />
        <path
            d="m340.54 67.92c1.28.87 2.74 1.29 4.19 1.29 2.4 0 4.77-1.16 6.22-3.31l28.02-41.55c2.32-3.43 1.41-8.09-2.02-10.41-3.44-2.32-8.1-1.41-10.41 2.02l-28.02 41.55c-2.32 3.44-1.42 8.1 2.02 10.42z" />
        <path
            d="m392.06 119.36c1.09 0 2.2-.24 3.25-.75l45.14-21.77c3.73-1.8 5.3-6.28 3.5-10.01s-6.28-5.3-10.01-3.5l-45.15 21.77c-3.73 1.8-5.29 6.28-3.49 10.01 1.29 2.68 3.97 4.25 6.76 4.25z" />
    </g>
    <path
        d="m449.2 435.02v69.48c0 4.14-3.36 7.5-7.5 7.5h-53.95c-4.14 0-7.5-3.36-7.5-7.5s3.36-7.5 7.5-7.5h46.45v-61.98c0-3.87-3.15-7.02-7.02-7.02h-342.36c-3.87 0-7.01 3.15-7.01 7.02v61.98h279.95c4.14 0 7.5 3.36 7.5 7.5s-3.36 7.5-7.5 7.5h-287.45c-4.15 0-7.5-3.36-7.5-7.5v-69.48c0-12.14 9.87-22.01 22.01-22.01h8.06v-51.04c0-4.14 3.36-7.5 7.5-7.5h20.86l23.17-218.64c3.11-29.38 27.74-51.54 57.29-51.54h39.31c4.14 0 7.5 3.36 7.5 7.5s-3.36 7.5-7.5 7.5h-39.31c-21.86 0-40.07 16.39-42.38 38.12l-22.99 217.06h64.98v-39.69c0-30.15 24.53-54.69 54.69-54.69 18.85 0 36.14 9.53 46.24 25.5 2.21 3.5 1.17 8.13-2.33 10.35-3.5 2.21-8.13 1.17-10.35-2.33-7.33-11.6-19.88-18.52-33.56-18.52-21.88 0-39.69 17.81-39.69 39.69v39.69h79.38v-35.71c0-4.14 3.36-7.5 7.5-7.5s7.5 3.36 7.5 7.5v35.71h64.99l-23-217.06c-2.3-21.73-20.52-38.12-42.37-38.12h-39.31c-4.15 0-7.5-3.36-7.5-7.5s3.35-7.5 7.5-7.5h39.31c29.54 0 54.17 22.16 57.28 51.54l23.17 218.64h20.86c4.15 0 7.5 3.36 7.5 7.5v51.04h8.06c12.14 0 22.01 9.87 22.02 22.01zm-45.08-22.01v-43.54h-296.24v43.54z"
        fill-rule="evenodd" />
</svg>