<svg height="512" viewBox="0 0 512 512" width="512" xmlns="http://www.w3.org/2000/svg"><path d="m421.57 116.31h-69.89c-6.12-.01-11.1 7.3-11.12 13.43v8.91h92.13v-8.92c-.02-6.12-5-13.43-11.12-13.42z" fill="#c9a969"/><path d="m420.89 99.65v16.66h-68.52v-16.66a25.308 25.308 0 0 1 25.38-25.24h17.75a25.317 25.317 0 0 1 25.39 25.24z" fill="#f2cf7d"/><path d="m298.22 479.69h-84.44a21.3 21.3 0 0 0 -21.31 21.31h127.06a21.309 21.309 0 0 0 -21.31-21.31z" fill="#c79a83"/><path d="m291.11 412.3v67.39h-70.22v-67.39a13.35 13.35 0 0 1 13.35-13.36h43.52a13.35 13.35 0 0 1 13.35 13.36z" fill="#6d7486"/><path d="m271.36 49.4a15.363 15.363 0 0 0 -30.72 0l-6.4 349.37v.17h43.52v-.17z" fill="#91b1c4"/><path d="m160.33 116.31h-69.9c-6.12-.01-11.1 7.3-11.12 13.42v8.92h92.13v-8.91c-.02-6.13-4.99-13.43-11.11-13.43z" fill="#c9a969"/><path d="m159.63 99.65v16.66h-68.52v-16.66a25.317 25.317 0 0 1 25.39-25.24h17.75a25.308 25.308 0 0 1 25.38 25.24z" fill="#f2cf7d"/><path d="m405.57 138.65v5.75a18.945 18.945 0 0 1 -37.89 0v-5.75z" fill="#5fa8ed"/><path d="m144.32 138.65v5.75a18.945 18.945 0 0 1 -37.89 0v-5.75z" fill="#5fa8ed"/><path d="m237.78 480h-24a21.155 21.155 0 0 0 -15.07 6.085 20.923 20.923 0 0 0 -6.24 14.915h24a20.923 20.923 0 0 1 6.24-14.915 21.155 21.155 0 0 1 15.07-6.085z" fill="#a57f6f"/><path d="m264.52 49.4a15.372 15.372 0 0 1 3.421-9.287 15.289 15.289 0 0 0 -22.756-1.353 15.451 15.451 0 0 0 -4.673 10.64l-6.512 349.37v.23h24v-.23z" fill="#7a93a0"/><path d="m258.24 399h-24a13.205 13.205 0 0 0 -13.24 13.3v67.7h24v-67.7a13.205 13.205 0 0 1 13.24-13.3z" fill="#555a66"/><path d="m219.17 59.15h73.66v35.91h-73.66z" fill="#9094bf"/><path d="m219 59h24v36h-24z" fill="#767a9b"/><g fill="#284268"><path d="m426.889 111.356v-11.727a31.342 31.342 0 0 0 -31.289-31.218h-5.057v-26.627a36.784 36.784 0 0 0 -73.568 0v5.176a24.191 24.191 0 0 1 -18.147 23.392v-11.2a6 6 0 0 0 -6-6h-15.4l-.071-3.857a21.433 21.433 0 0 0 -21.357-20.974h-.155a21.242 21.242 0 0 0 -21.2 20.97l-.071 3.857h-15.4a6 6 0 0 0 -6 6v11.2a24.191 24.191 0 0 1 -18.147-23.388v-5.176a36.784 36.784 0 0 0 -73.568 0v26.627h-5.04a31.35 31.35 0 0 0 -31.308 31.236v11.713c-6.989 2.831-11.778 10.941-11.8 18.371v8.913a6 6 0 0 0 6 6h21.125a24.939 24.939 0 0 0 49.875 0h21.126a6 6 0 0 0 6-6v-8.924c-.02-7.42-4.812-15.536-11.8-18.364v-11.727a31.342 31.342 0 0 0 -31.291-31.218h-.885v-26.627a24.784 24.784 0 1 1 49.568 0v5.176a36.2 36.2 0 0 0 30.145 35.64v12.464a6 6 0 0 0 6 6h14.526l-.479 26.173a6 6 0 0 0 12 .22l.482-26.393h20.61l5.345 291.878h-31.3l4.1-223.484a6 6 0 1 0 -12-.22l-4.116 224.635a19.384 19.384 0 0 0 -13.456 18.427v61.392h-1.1a27.343 27.343 0 0 0 -27.316 27.308 6 6 0 0 0 6 6h127.06a6 6 0 0 0 6-6 27.343 27.343 0 0 0 -27.312-27.312h-1.1v-61.388a19.384 19.384 0 0 0 -13.443-18.423l-5.362-292.809h14.517a6 6 0 0 0 6-6v-12.468a36.2 36.2 0 0 0 30.147-35.64v-5.176a24.784 24.784 0 1 1 49.568 0v26.627h-.868a31.351 31.351 0 0 0 -31.308 31.236v11.712c-6.992 2.832-11.782 10.947-11.8 18.377v8.913a6 6 0 0 0 6 6h21.126a24.939 24.939 0 0 0 49.875 0h21.125a6 6 0 0 0 6-6v-8.937c-.028-7.418-4.822-15.53-11.806-18.356zm-301.516 45.986a12.953 12.953 0 0 1 -12.932-12.693h25.864a12.953 12.953 0 0 1 -12.932 12.693zm34.966-35.028c2.051 0 5.084 3.914 5.094 7.422v2.913h-80.123v-2.908c.016-3.521 3.045-7.427 5.113-7.427zm-26.069-41.9h.056a19.33 19.33 0 0 1 19.309 19.236v10.667h-56.524v-10.652a19.337 19.337 0 0 1 19.327-19.254h17.832zm112.372-30.9a9.308 9.308 0 0 1 9.293-9.19h.065a9.393 9.393 0 0 1 9.359 9.19l.067 3.638h-18.851zm51.576 436.176a15.336 15.336 0 0 1 14.088 9.31h-112.612a15.336 15.336 0 0 1 14.088-9.312zm-13.1-73.392v61.392h-58.232v-61.39a7.362 7.362 0 0 1 7.354-7.354h43.52a7.362 7.362 0 0 1 7.354 7.354zm1.712-323.232h-61.656v-23.917h61.652zm71.539 10.6a19.3 19.3 0 0 1 19.383-19.254h17.774a19.334 19.334 0 0 1 19.367 19.236v10.667h-56.528zm28.262 57.677a12.953 12.953 0 0 1 -12.931-12.694h25.864a12.953 12.953 0 0 1 -12.937 12.693zm40.063-24.693h-80.131v-2.9c.01-3.524 3.043-7.438 5.114-7.438h69.923c2.05 0 5.084 3.913 5.094 7.421z"/><path d="m386.627 175.1a6 6 0 0 0 -6 6v17.76a6 6 0 0 0 12 0v-17.76a6 6 0 0 0 -6-6z"/><path d="m418.55 171.154a6 6 0 0 0 -10.567 5.689l8.288 15.392a6 6 0 0 0 10.567-5.689z"/><path d="m364.315 167.705a6 6 0 0 0 -8.253 1.965l-9.473 15.392a6 6 0 1 0 10.219 6.289l9.472-15.392a6 6 0 0 0 -1.965-8.254z"/><path d="m125.373 175.1a6 6 0 0 0 -6 6v17.76a6 6 0 1 0 12 0v-17.76a6 6 0 0 0 -6-6z"/><path d="m101.578 168.716a6 6 0 0 0 -8.128 2.438l-8.288 15.392a6 6 0 1 0 10.567 5.689l8.288-15.392a6 6 0 0 0 -2.439-8.127z"/><path d="m155.938 169.67a6 6 0 1 0 -10.218 6.289l9.472 15.392a6 6 0 0 0 10.219-6.289z"/><path d="m219.375 141.168c.091 0 .182.006.272.006a6.565 6.565 0 1 0 -.272-.006z"/><path d="m214.952 258.188c.087 0 .173.006.26.006a6 6 0 0 0 5.989-5.745l4.034-94.714a6 6 0 1 0 -11.988-.51l-4.034 94.713a6 6 0 0 0 5.739 6.25z"/></g></svg>